# xmcd
#
# Track frame offsets:
#	150
#	3900
#	21895
#	40587
#	63515
#	85590
#	86705
#	104810
#	124610
#	145000
#	146702
#	171937
#	195667
#	213667
#	228352
#	231990
#	249275
#	272922
#
# Disc length: 3766 seconds
#
# Revision: 0
# Processed by: cddbd v1.5.1PL0 Copyright (c) Steve Scherf et al.
# Submitted via: EasyCDDAExtractor 7.5.0.1
#
DISCID=fa0eb412
DTITLE=Zuri - Song  Book (Second Edition)
DYEAR=2001
DGENRE=R&B
TTITLE0=All My Love (Intro)
TTITLE1=Dealin' With Your Ex'
TTITLE2=I Like Me Again
TTITLE3=U Shoulda' Been Goot 2 Me
TTITLE4=If Lovin' Was Drugs
TTITLE5=I Just Wanna Try It...
TTITLE6=Do Right Man
TTITLE7=WWW.Umsohot4u2nite.Cum
TTITLE8=I Got U, U Got Me
TTITLE9=Concentrated Hoochies
TTITLE10=Every woman's Got Intuition
TTITLE11=Love's Mood
TTITLE12=Welcome 2 Hollywood
TTITLE13=It's Jumpin' Off
TTITLE14=Somethin' 2 The Table
TTITLE15=U Gonna Make Me Cheat On U
TTITLE16=I'm In Love With Jesus
TTITLE17=All My Love (Outro)
EXTD=
EXTT0=
EXTT1=
EXTT2=
EXTT3=
EXTT4=
EXTT5=
EXTT6=
EXTT7=
EXTT8=
EXTT9=
EXTT10=
EXTT11=
EXTT12=
EXTT13=
EXTT14=
EXTT15=
EXTT16=
EXTT17=
PLAYORDER=
